<?xml version="1.0" encoding="UTF-8" standalone="no"?>
<!DOCTYPE svg PUBLIC "-//W3C//DTD SVG 1.1//EN" "http://www.w3.org/Graphics/SVG/1.1/DTD/svg11.dtd">
<svg width="612pt" height="792pt" viewBox="0 0 612 792" overflow="visible" version="1.1" xmlns="http://www.w3.org/2000/svg">
  <path d="M231.8719,467.5069 L237.5412,457.6874 L243.2105,467.5069 C239.6528,468.7996 235.4297,468.7996 231.8719,467.5069 z" stroke="#000000" stroke-width="0.24" fill-opacity="0" />
  <path d="M231.8719,435.4366 L237.5412,445.2561 L243.2105,435.4366 C239.6528,434.1439 235.4297,434.1439 231.8719,435.4366 z" stroke="#000000" stroke-width="0.24" fill-opacity="0" />
  <path d="M254.5491,451.4717 C254.6546,447.5045 252.8541,442.7319 249.5676,439.4454 C246.2811,436.1588 241.5084,434.3584 237.5412,434.4639 C233.574,434.3584 228.8014,436.1588 225.5148,439.4454 C222.2283,442.7319 220.4279,447.5045 220.5333,451.4717 C220.4279,455.4389 222.2283,460.2116 225.5148,463.4981 C228.8014,466.7847 233.574,468.5851 237.5412,468.4796 C241.5084,468.5851 246.2811,466.7847 249.5676,463.4981 C252.8541,460.2116 254.6546,455.4389 254.5491,451.4717 z" stroke="#000000" stroke-width="0.24" fill-opacity="0" />
  <path d="M339.5885,420.0528 L342.4231,415.143 L345.2578,420.0528 C343.3946,420.3697 341.4516,420.3697 339.5885,420.0528 z" stroke="#000000" stroke-width="0.24" fill-opacity="0" />
  <path d="M339.5885,386.5128 L342.4231,391.4225 L345.2578,386.5128 C343.3946,386.1958 341.4516,386.1958 339.5885,386.5128 z" stroke="#000000" stroke-width="0.24" fill-opacity="0" />
  <path d="M359.431,403.2828 C359.5364,399.3156 357.736,394.5429 354.4495,391.2564 C351.163,387.9698 346.3903,386.1694 342.4231,386.2749 C338.4559,386.1694 333.6833,387.9698 330.3967,391.2564 C327.1102,394.5429 325.3098,399.3156 325.4152,403.2828 C325.3098,407.25 327.1102,412.0226 330.3967,415.3091 C333.6833,418.5957 338.4559,420.3961 342.4231,420.2906 C346.3903,420.3961 351.163,418.5957 354.4495,415.3091 C357.736,412.0226 359.5364,407.25 359.431,403.2828 z" stroke="#000000" stroke-width="0.24" fill-opacity="0" />
  <path d="M254.5491,377.771 C254.6546,373.8037 252.8541,369.0311 249.5676,365.7446 C246.2811,362.458 241.5084,360.6576 237.5412,360.7631 C233.574,360.6576 228.8014,362.458 225.5148,365.7446 C222.2283,369.0311 220.4279,373.8037 220.5333,377.771 C220.4279,381.7382 222.2283,386.5108 225.5148,389.7973 C228.8014,393.0839 233.574,394.8843 237.5412,394.7788 C241.5084,394.8843 246.2811,393.0839 249.5676,389.7973 C252.8541,386.5108 254.6546,381.7382 254.5491,377.771 z" stroke="#000000" stroke-width="0.24" fill-opacity="0" />
  <path d="M359.5325,388.3218 L362.4671,383.2388 L357.3842,386.1735 z" stroke="#000000" stroke-width="0.24" fill-opacity="0" />
  <path d="M254.6506,436.5107 L257.5852,431.4278 L252.5023,434.3624 z" stroke="#000000" stroke-width="0.24" fill-opacity="0" />
  <path d="M254.6506,362.81 L257.5852,357.727 L252.5023,360.6617 z" stroke="#000000" stroke-width="0.24" fill-opacity="0" />
  <path d="M220.7713,454.3064 L203.5255,454.3064 L203.5255,448.6371 L220.7713,448.6371" stroke="#000000" stroke-width="0.24" fill-opacity="0" />
  <path d="M339.5885,410.2333 L342.4231,415.143 L345.2578,410.2333 z" stroke="#000000" stroke-width="0.24" fill-opacity="0" />
  <path d="M339.5885,396.3323 L342.4231,391.4225 L345.2578,396.3323 z" stroke="#000000" stroke-width="0.24" fill-opacity="0" />
  <path d="M291.3995,368.5075 L294.2342,363.5977 L297.0688,368.5075 z" stroke="#000000" stroke-width="0.24" fill-opacity="0" />
  <path d="M291.3995,370.0266 L294.2342,374.9363 L297.0688,370.0266 z" stroke="#000000" stroke-width="0.24" fill-opacity="0" />
  <path d="M325.6531,406.1174 L308.4074,406.1174 L308.4074,400.4482 L325.6531,400.4482" stroke="#000000" stroke-width="0.24" fill-opacity="0" />
  <path d="M314.0767,359.244 L319.746,349.4245 L325.4153,359.244 z" stroke="#000000" stroke-width="0.24" fill-opacity="0" />
  <path d="M220.7713,380.6056 L203.5255,380.6056 L203.5255,374.9363 L220.7713,374.9363" stroke="#000000" stroke-width="0.24" fill-opacity="0" />
  <path d="M231.8719,370.5826 L237.5412,360.7631 L243.2105,370.5826 z" stroke="#000000" stroke-width="0.24" fill-opacity="0" />
  <path d="M221.5061,467.507 L253.5764,435.4366" stroke="#000000" stroke-width="0.24" fill-opacity="0" />
  <path d="M221.5061,393.8062 L253.5764,361.7358" stroke="#000000" stroke-width="0.24" fill-opacity="0" />
  <path d="M326.388,419.318 L358.4583,387.2476" stroke="#000000" stroke-width="0.24" fill-opacity="0" />
</svg>