<?xml version="1.0" encoding="UTF-8" standalone="no"?>
<!DOCTYPE svg PUBLIC "-//W3C//DTD SVG 1.1//EN" "http://www.w3.org/Graphics/SVG/1.1/DTD/svg11.dtd">
<svg width="612pt" height="792pt" viewBox="0 0 612 792" overflow="visible" version="1.1" xmlns="http://www.w3.org/2000/svg">
  <path d="M283.5777,439.7457 L286.4123,436.911 L283.5777,434.0764" stroke="#000000" stroke-width="0.24" fill-opacity="0" />
  <path d="M233.4092,451.7165 L223.5897,446.0472 L223.5897,457.3858 z" stroke="#000000" stroke-width="0.24" fill-opacity="0" />
  <path d="M210.732,457.3858 L233.4092,457.3858 L233.4092,446.0472 L210.732,446.0472 z" stroke="#000000" stroke-width="0.24" fill-opacity="0" />
  <path d="M230.2605,434.5185 L220.441,428.8492 L220.441,440.1878 z" stroke="#000000" stroke-width="0.24" fill-opacity="0" />
  <path d="M213.2527,440.1878 L230.2605,440.1878 L230.2605,428.8492 L213.2527,428.8492 z" stroke="#000000" stroke-width="0.24" fill-opacity="0" />
  <path d="M221.3535,407.3268 L218.4118,408.0863 L218.4653,402.2173 z" stroke="#000000" stroke-width="0.24" fill-opacity="0" />
  <path d="M213.5047,421.6098 L230.5126,421.6098 L230.5126,410.2712 L213.5047,410.2712 z" stroke="#000000" stroke-width="0.24" fill-opacity="0" />
  <path d="M220.9734,346.2439 L221.733,343.3022 L215.864,343.3557 z" stroke="#000000" stroke-width="0.24" fill-opacity="0" />
  <path d="M229.5871,376.6685 L229.5871,388.007 L212.5793,388.007 L212.5793,376.6685 L223.9178,365.3299" stroke="#000000" stroke-width="0.24" fill-opacity="0" />
  <path d="M246.595,370.9991 L240.9257,369.4801 L240.9257,372.5182 z" stroke="#000000" stroke-width="0.24" fill-opacity="0" />
  <path d="M223.9178,376.6685 L246.595,376.6685 L246.595,353.9913 L223.9178,353.9913 z" stroke="#000000" stroke-width="0.24" fill-opacity="0" />
  <path d="M292.6485,439.7457 L289.8139,436.911 L292.6485,434.0764" stroke="#000000" stroke-width="0.24" fill-opacity="0" />
  <path d="M224.1346,424.1744 L219.8827,407.7066" stroke="#000000" stroke-width="0.24" fill-opacity="0" />
  <path d="M219.174,421.6098 L224.8433,410.2712" stroke="#000000" stroke-width="0.24" fill-opacity="0" />
  <path d="M237.821,349.025 L221.3532,344.773" stroke="#000000" stroke-width="0.24" fill-opacity="0" />
  <path d="M235.2564,340.9888 L229.5871,339.8181" stroke="#000000" stroke-width="0.24" fill-opacity="0" />
  <path d="M229.5871,342.1708 L235.2564,340.9888" stroke="#000000" stroke-width="0.24" fill-opacity="0" />
  <path d="M223.9178,343.3528 L229.5871,342.1708" stroke="#000000" stroke-width="0.24" fill-opacity="0" />
  <path d="M229.5871,344.5349 L223.9178,343.3528" stroke="#000000" stroke-width="0.24" fill-opacity="0" />
  <path d="M235.2564,345.7169 L229.5871,344.5349" stroke="#000000" stroke-width="0.24" fill-opacity="0" />
  <path d="M229.5871,346.899 L235.2564,345.7169" stroke="#000000" stroke-width="0.24" fill-opacity="0" />
  <path d="M223.9178,348.0811 L229.5871,346.899" stroke="#000000" stroke-width="0.24" fill-opacity="0" />
  <path d="M229.5871,349.2631 L223.9178,348.0811" stroke="#000000" stroke-width="0.24" fill-opacity="0" />
  <path d="M235.2564,350.4451 L229.5871,349.2631" stroke="#000000" stroke-width="0.24" fill-opacity="0" />
  <path d="M229.5871,351.6272 L235.2564,350.4451" stroke="#000000" stroke-width="0.24" fill-opacity="0" />
  <path d="M223.9178,352.8092 L229.5871,351.6272" stroke="#000000" stroke-width="0.24" fill-opacity="0" />
  <path d="M229.5871,353.9913 L223.9178,352.8092" stroke="#000000" stroke-width="0.24" fill-opacity="0" />
  <path d="M223.9178,365.3299 L212.5793,365.3299" stroke="#000000" stroke-width="0.24" fill-opacity="0" />
  <path d="M246.595,365.3299 L257.9336,365.3299" stroke="#000000" stroke-width="0.24" fill-opacity="0" />
  <path d="M223.9178,370.9991 L240.9257,370.9991" stroke="#000000" stroke-width="0.24" fill-opacity="0" />
</svg>